<svg width="18" height="21" viewBox="0 0 18 21" fill="none" xmlns="http://www.w3.org/2000/svg">
<path d="M7.15015 0.5625C5.86841 0.5625 4.8125 1.61841 4.8125 2.90015V3.6875H0.125V5.25H1.6875V18.5312C1.6875 19.8191 2.74341 20.875 4.03125 20.875H13.4062C14.6941 20.875 15.75 19.8191 15.75 18.5312V5.25H17.3125V3.6875H12.625V2.90015C12.625 1.61841 11.5691 0.5625 10.2874 0.5625H7.15015ZM7.15015 2.125H10.2874C10.7268 2.125 11.0625 2.46069 11.0625 2.90015V3.6875H6.375V2.90015C6.375 2.46069 6.71069 2.125 7.15015 2.125ZM3.25 5.25H14.1875V18.5312C14.1875 18.9707 13.8457 19.3125 13.4062 19.3125H4.03125C3.5918 19.3125 3.25 18.9707 3.25 18.5312V5.25ZM4.8125 6.8125V17.75H6.375V6.8125H4.8125ZM7.9375 6.8125V17.75H9.5V6.8125H7.9375ZM11.0625 6.8125V17.75H12.625V6.8125H11.0625Z" fill="#5B636B"/>
</svg>
