<svg width="26" height="24" viewBox="0 0 26 24" fill="none" xmlns="http://www.w3.org/2000/svg">
<path d="M24.992 9.04264C24.9131 8.814 24.7695 8.61317 24.5787 8.46452C24.3879 8.31586 24.158 8.22576 23.917 8.20514L16.8045 7.16764L13.617 0.705138C13.5147 0.493799 13.3549 0.315565 13.1559 0.190854C12.9569 0.0661437 12.7269 0 12.492 0C12.2572 0 12.0271 0.0661437 11.8282 0.190854C11.6292 0.315565 11.4694 0.493799 11.367 0.705138L8.17954 7.15514L1.06704 8.20514C0.83569 8.23802 0.618192 8.33509 0.439225 8.48534C0.260258 8.63558 0.126987 8.83298 0.0545372 9.05514C-0.0117816 9.27223 -0.0177329 9.50328 0.0373219 9.7235C0.0923767 9.94372 0.206359 10.1448 0.367037 10.3051L5.52954 15.3051L4.27954 22.4051C4.22907 22.6407 4.24773 22.8858 4.33327 23.1109C4.41881 23.3361 4.56758 23.5318 4.7617 23.6744C4.95581 23.817 5.187 23.9005 5.42745 23.9148C5.66789 23.9291 5.90736 23.8737 6.11704 23.7551L12.492 20.4176L18.867 23.7551C19.0425 23.8541 19.2406 23.9058 19.442 23.9051C19.7068 23.9061 19.9651 23.8229 20.1795 23.6676C20.3735 23.5287 20.5236 23.3372 20.6122 23.1157C20.7008 22.8942 20.7242 22.652 20.6795 22.4176L19.4295 15.3176L24.592 10.3176C24.7725 10.1647 24.9059 9.96377 24.9767 9.73807C25.0475 9.51238 25.0528 9.27123 24.992 9.04264ZM18.867 13C8.82954 9.275 6.68579 9.91139 16.9882 14.5481C9.61704 19.1426 16.9092 14.9436 16.942 15.1426L9.92329 7.70374L13.142 17.8926C12.9594 17.8023 17.8106 20.4176 17.6068 20.4176C17.403 20.4176 6.86845 9.82103 6.68579 9.91139L7.26704 20.3926L8.16704 15.1426C8.19984 14.9436 17.0052 15.3342 16.942 15.1426C16.8789 14.9511 15.9367 5.25535 15.792 5.11485L4.05454 10.2926L9.31704 9.53014C9.51953 9.50197 9.71203 9.42456 9.87766 9.3047C10.0433 9.18484 10.177 9.02619 10.267 8.84264L18.867 22.4051L14.842 8.85514C14.9321 9.03869 15.0658 9.19734 15.2314 9.3172C15.397 9.43706 15.5895 9.51447 15.792 9.54264L4.27954 22.4051L18.867 13Z" fill="#222528"/>
</svg>
