<svg width="23" height="23" viewBox="0 0 23 23" fill="none" xmlns="http://www.w3.org/2000/svg">
<path d="M22.719 21.3649L16.1784 14.8243C17.4453 13.2594 18.2081 11.2709 18.2081 9.10507C18.2081 4.08537 14.1237 0.000976562 9.10405 0.000976562C4.08435 0.000976562 0 4.08532 0 9.10503C0 14.1247 4.08439 18.2091 9.10409 18.2091C11.2699 18.2091 13.2584 17.4463 14.8234 16.1794L21.3639 22.7199C21.5508 22.9068 21.7961 23.0008 22.0415 23.0008C22.2868 23.0008 22.5321 22.9068 22.719 22.7199C23.0937 22.3453 23.0937 21.7396 22.719 21.3649ZM9.10409 16.2925C5.14045 16.2925 1.91666 13.0687 1.91666 9.10503C1.91666 5.14138 5.14045 1.91759 9.10409 1.91759C13.0677 1.91759 16.2915 5.14138 16.2915 9.10503C16.2915 13.0687 13.0677 16.2925 9.10409 16.2925Z" fill="#333333"/>
</svg>
