<svg width="26" height="24" viewBox="0 0 26 24" fill="none" xmlns="http://www.w3.org/2000/svg">
<path d="M25.4998 9.08756C25.4209 8.85892 25.2773 8.65809 25.0865 8.50944C24.8957 8.36078 24.6659 8.27068 24.4248 8.25006L17.3123 7.21256L14.1248 0.750059C14.0225 0.538721 13.8627 0.360487 13.6637 0.235776C13.4647 0.111066 13.2347 0.0449219 12.9998 0.0449219C12.765 0.0449219 12.535 0.111066 12.336 0.235776C12.137 0.360487 11.9772 0.538721 11.8748 0.750059L8.68735 7.20006L1.57485 8.25006C1.3435 8.28294 1.126 8.38001 0.947037 8.53026C0.76807 8.6805 0.6348 8.8779 0.56235 9.10006C0.496031 9.31715 0.49008 9.54821 0.545134 9.76843C0.600189 9.98865 0.714172 10.1897 0.87485 10.3501L6.03735 15.3501L4.78735 22.4501C4.73688 22.6856 4.75554 22.9307 4.84108 23.1559C4.92662 23.381 5.0754 23.5767 5.26951 23.7193C5.46363 23.8619 5.69481 23.9454 5.93526 23.9597C6.17571 23.9741 6.41517 23.9186 6.62485 23.8001L12.9998 20.4626L19.3748 23.8001C19.5503 23.899 19.7484 23.9507 19.9498 23.9501C20.2146 23.951 20.4729 23.8678 20.6873 23.7126C20.8813 23.5736 21.0314 23.3821 21.12 23.1606C21.2086 22.9391 21.232 22.6969 21.1873 22.4626L19.9373 15.3626L25.0998 10.3626C25.2803 10.2097 25.4137 10.0087 25.4845 9.783C25.5553 9.5573 25.5606 9.31615 25.4998 9.08756ZM17.8123 14.0876C17.6677 14.2281 17.5591 14.4015 17.496 14.593C17.4329 14.7846 17.417 14.9886 17.4498 15.1876L18.3498 20.4376L13.6498 17.9376C13.4672 17.8472 13.2661 17.8002 13.0623 17.8002C12.8586 17.8002 12.6575 17.8472 12.4748 17.9376L7.77485 20.4376L8.67485 15.1876C8.70765 14.9886 8.69181 14.7846 8.62868 14.593C8.56556 14.4015 8.45703 14.2281 8.31235 14.0876L4.56235 10.3376L9.82485 9.57506C10.0273 9.54689 10.2198 9.46949 10.3855 9.34962C10.5511 9.22976 10.6848 9.07111 10.7748 8.88756L12.9998 4.12506L15.3498 8.90006C15.4399 9.08361 15.5736 9.24226 15.7392 9.36213C15.9049 9.48199 16.0974 9.55939 16.2998 9.58756L21.5623 10.3501L17.8123 14.0876Z" fill="#222528"/>
</svg>
