<svg height="456pt" viewBox="-24 0 456 456.24788" width="456pt" xmlns="http://www.w3.org/2000/svg"><path d="m118.890625 336.246094h-5.78125v24.296875c0 6.105469-1.164063 12.15625-3.433594 17.824219l-12.566406 31.417968v46.460938h16v-48c-.003906-1.816406.617187-3.578125 1.75-5l24.992187-31.199219c3.398438-4.261719 5.25-9.546875 5.257813-15v-6.191406c-3.75-1.511719-7.375-3.304688-10.847656-5.367188zm0 0"/><path d="m.125 229.28125 2.488281 8.085938c3.644531 11.84375 14.441407 20.039062 26.832031 20.359374 2.222657-5.261718 5.257813-10.144531 8.992188-14.46875zm0 0"/><path d="m303.972656 276.71875c-9.445312 18.394531-22.691406 34.574219-38.863281 47.457031v2.007813l3.382813-.800782c16.25-2.984374 30.601562-12.417968 39.792968-26.148437s12.4375-30.59375 9.007813-46.753906c-4.511719 7.375-8.703125 15.214843-13.320313 24.238281zm0 0"/><path d="m297.109375 456.246094h16v-138.351563c-4.773437 4.929688-10.148437 9.230469-16 12.800781zm0 0"/><path d="m406.765625 53.511719c-1.503906-1.503907-3.539063-2.347657-5.660156-2.347657-2.125 0-4.160157.84375-5.660157 2.347657-10.976562 10.992187-26.082031 16.84375-41.601562 16.113281 5.054688-6.121094 9.203125-12.9375 12.328125-20.234375l23.375-15.542969c3.675781-2.453125 4.667969-7.417968 2.21875-11.097656-2.453125-3.675781-7.421875-4.667969-11.097656-2.214844l-8.136719 5.425782c.730469-6.148438.765625-12.359376.113281-18.511719-.265625-2.871094-2.050781-5.375-4.679687-6.5625-2.625-1.183594-5.6875-.8632815-8.011719.839843-2.328125 1.703126-3.554687 4.523438-3.222656 7.386719 1.691406 16.078125-2.433594 32.230469-11.621094 45.535157v-3.480469c0-4.417969-3.582031-8-8-8s-8 3.582031-8 8v19.246093l-11.488281 6.265626c-7.714844 4.203124-12.511719 12.289062-12.511719 21.070312v6.496094h-16v-6.496094c0-8.78125-4.800781-16.867188-12.511719-21.070312l-11.488281-6.265626v-19.246093c0-4.417969-3.582031-8-8-8s-8 3.582031-8 8v3.480469c-9.207031-13.320313-13.332031-29.5-11.625-45.601563.382813-2.890625-.839844-5.761719-3.191406-7.492187-2.351563-1.726563-5.453125-2.039063-8.101563-.8125-2.648437 1.226562-4.417968 3.796874-4.621094 6.707031-.652343 6.15625-.613281 12.367187.113282 18.519531l-8.136719-5.425781c-3.667969-2.324219-8.519531-1.292969-10.933594 2.320312-2.410156 3.609375-1.5 8.488281 2.054688 10.984375l23.351562 15.566406c3.125 7.300782 7.277344 14.113282 12.328125 20.234376-15.515625.722656-30.617187-5.128907-41.601562-16.113282-3.121094-3.128906-8.191406-3.132812-11.316406-.007812-3.128907 3.125-3.132813 8.191406-.007813 11.320312 13.351563 13.394532 31.484375 20.921875 50.398437 20.929688 4.726563 0 9.445313-.46875 14.078126-1.394532l3.875-.800781 13.101562 7.144531c2.574219 1.402344 4.175781 4.097657 4.175781 7.023438v6.496094c.011719 2.011718.785157 3.941406 2.167969 5.402344-8.464844 16.351562-23.917969 27.953124-41.984375 31.519531l-4.703125.945312c-3.144531 3.234375-4.210938 7.964844-2.75 12.238281 1.503906 3.59375 5.03125 5.925782 8.925781 5.894532h35.105469c5.121094.015625 10.039062-2.019532 13.648438-5.652344 3.121093-3.128906 8.191406-3.132812 11.320312-.011719 3.125 3.125 3.128906 8.195313.007812 11.320313-5.925781 5.886718-13.765624 9.457031-22.097656 10.066406-2.015625 19.863281-11.960937 38.074219-27.582031 50.511719l-15.007813 12c-1.417968 1.136719-3.175781 1.761719-4.992187 1.765625h-145.503906c-21.25.027344-38.472657 17.246094-38.496094 38.496094-.175781 14.011718 5.304687 27.503906 15.199219 37.425781l6.398437 6.398437c1.527344 1.496094 2.390625 3.542969 2.402344 5.679688v32c0 1.820312-.617187 3.582031-1.753906 5l-30.246094 37.808594v53.191406h16v-48c-.003906-2.375 1.050781-4.628906 2.878906-6.148438l36.480469-30.402344c5.46875-4.542968 8.636719-11.285156 8.640625-18.398437v-25.050781c0-4.417969 3.582031-8 8-8h16c.941406.023437 1.871094.210937 2.75.554687.25.09375.464844.191407.695313.304688.234374.109375.457031.160156.671874.285156l17.265626 10.402344c13.046874 7.78125 28.429687 10.691406 43.414062 8.207031l21.851562-3.640625c3.707032-.601563 7.339844 1.4375 8.75 4.921875l16 40c.386719.941406.589844 1.949219.601563 2.964844v72h16v-136c0-2.515625 1.183594-4.886719 3.199219-6.398438 15.671875-11.789062 28.46875-26.976562 37.421875-44.421875 5.613281-11.355469 11.910156-22.359375 18.859375-32.945312l4.519531-6.6875v-117.546875c4.417969 0 8-3.578125 8-8v-6.496094c-.003906-2.925781 1.597656-5.621094 4.167969-7.023438l13.109375-7.144531 3.875.800781c4.632812.925782 9.351562 1.394532 14.078125 1.394532 18.914062-.007813 37.046875-7.535156 50.398437-20.929688 1.511719-1.496094 2.363281-3.535156 2.367188-5.664062.003906-2.125-.835938-4.167969-2.339844-5.671875zm-109.65625 74.734375c0 4.421875-3.582031 8-8 8s-8-3.578125-8-8v-8c0-4.417969 3.582031-8 8-8s8 3.582031 8 8zm-120 176h-16v-16h16zm0-32v-16h16v16zm32 32h-16v-16h16zm16-32h-16v-16h16zm0 0"/></svg>