<svg width="39" height="39" viewBox="0 0 39 39" fill="none" xmlns="http://www.w3.org/2000/svg">
<path d="M34.2603 21.9169C33.8386 21.9169 33.3978 21.7828 32.9761 21.6869C32.1222 21.4988 31.2831 21.249 30.4653 20.9394C29.5761 20.616 28.5988 20.6328 27.7212 20.9866C26.8437 21.3404 26.1281 22.0063 25.712 22.8561L25.2903 23.7186C23.4235 22.6801 21.708 21.3903 20.192 19.8853C18.687 18.3692 17.3971 16.6538 16.3586 14.7869L17.1636 14.2503C18.0134 13.8342 18.6793 13.1185 19.0332 12.241C19.387 11.3635 19.4038 10.3861 19.0803 9.49694C18.776 8.67742 18.5263 7.83864 18.3328 6.98611C18.237 6.56444 18.1603 6.12361 18.1028 5.68278C17.8701 4.33271 17.1629 3.11011 16.1088 2.23515C15.0546 1.36019 13.7226 0.89036 12.3528 0.910276H6.60282C5.77679 0.90252 4.95879 1.07284 4.20451 1.40963C3.45022 1.74642 2.77736 2.24178 2.23172 2.86198C1.68609 3.48219 1.28049 4.21268 1.04254 5.00373C0.804595 5.79478 0.739884 6.62781 0.852815 7.44611C1.8739 15.4758 5.54104 22.9364 11.275 28.6495C17.0089 34.3626 24.4828 38.0026 32.5161 38.9944H33.2445C34.6579 38.9965 36.0225 38.478 37.0778 37.5378C37.6842 36.9954 38.1686 36.3306 38.499 35.5872C38.8294 34.8438 38.9982 34.0388 38.9945 33.2253V27.4753C38.971 26.1439 38.4862 24.862 37.6228 23.8483C36.7594 22.8346 35.571 22.152 34.2603 21.9169ZM35.2186 33.4169C35.2183 33.6891 35.16 33.958 35.0476 34.2059C34.9353 34.4537 34.7714 34.6748 34.567 34.8544C34.3528 35.0393 34.1024 35.1775 33.8317 35.26C33.5611 35.3425 33.2762 35.3676 32.9953 35.3336C25.8172 34.4132 19.1498 31.1294 14.0447 26C8.93961 20.8706 5.68743 14.1877 4.80115 7.00528C4.77064 6.72452 4.79738 6.44049 4.87974 6.17036C4.96209 5.90023 5.09837 5.64959 5.28032 5.43361C5.45993 5.22916 5.68102 5.0653 5.92887 4.95294C6.17673 4.84058 6.44568 4.78229 6.71782 4.78194H12.4678C12.9135 4.77203 13.3488 4.91779 13.6986 5.19416C14.0484 5.47053 14.291 5.8602 14.3845 6.29611C14.4611 6.82 14.557 7.3375 14.672 7.84861C14.8934 8.85897 15.1881 9.85187 15.5536 10.8194L12.8703 12.0653C12.6409 12.1705 12.4345 12.3201 12.263 12.5053C12.0916 12.6906 11.9584 12.9079 11.8711 13.1447C11.7838 13.3816 11.7442 13.6334 11.7545 13.8856C11.7648 14.1378 11.8249 14.3855 11.9311 14.6144C14.6896 20.5231 19.4392 25.2726 25.3478 28.0311C25.8144 28.2228 26.3378 28.2228 26.8045 28.0311C27.0435 27.9456 27.2632 27.8135 27.4507 27.6424C27.6383 27.4713 27.79 27.2646 27.897 27.0344L29.0853 24.3511C30.0762 24.7055 31.0874 24.9999 32.1136 25.2328C32.6248 25.3478 33.1423 25.4436 33.6661 25.5203C34.1021 25.6138 34.4917 25.8563 34.7681 26.2062C35.0445 26.556 35.1902 26.9912 35.1803 27.4369L35.2186 33.4169Z" fill="#FAFAF9"/>
</svg>
